# xmcd CD database file
#
# Track frame offsets:
#	150
#	1663
#	25485
#	50995
#	55498
#	60644
#	74792
#	96001
#	114385
#	130903
#	156021
#	164070
#	183844
#	188464
#	196647
#	207217
#	221098
#	236213
#
# Disc length: 3170 seconds
#
# Revision: 0
# Processed by: cddbd v1.5.2PL0 Copyright (c) Steve Scherf et al.
# Submitted via: CDex 2.02
#
DISCID=060c6012
DTITLE=Guy Davis - The Adventures of Fishy Waters: In Bed With the Blues [CD1)
DYEAR=2012
DGENRE=Blues
TTITLE0=Musical Introduction
TTITLE1=Ramblin' All Over
TTITLE2=Railroad Story
TTITLE3=What's It Like Bein' a Hobo
TTITLE4=Miss Ripley's Catfish Stew
TTITLE5=Candy Man
TTITLE6=The Drunken Silkworm
TTITLE7=Fly Took Stockings
TTITLE8=Madison and the Pigs
TTITLE9=The Farmer and His Eight Sons
TTITLE10=Black Man's Blues
TTITLE11=The Lynching
TTITLE12=Black Man's Blues Pt 2
TTITLE13=Black Man Dancing
TTITLE14=Fast Runner
TTITLE15=Georgia Rag
TTITLE16=The One-Legged Grave Robber
TTITLE17=Close-out Side one Music
EXTD=YEAR: 2012
EXTT0=
EXTT1=
EXTT2=
EXTT3=
EXTT4=
EXTT5=
EXTT6=
EXTT7=
EXTT8=
EXTT9=
EXTT10=
EXTT11=
EXTT12=
EXTT13=
EXTT14=
EXTT15=
EXTT16=
EXTT17=
PLAYORDER=
